PathFileType	4	(X/Y/Z)	RBDS019\RBDS019runT25.trc
DataRate	CameraRate	NumFrames	NumMarkers	Units	OrigDataRate	OrigDataStartFrame	OrigNumFrames
150.000000	150.000000	5	33	mm	150.000000	2812	4500
Frame#	Time	L.ASIS			L.Heel.Bottom			L.Heel.Lateral			L.Heel.Top			L.Iliac.Crest			L.MT1			L.MT5			L.PSIS			L.Shank.Bottom.Lateral			L.Shank.Bottom.Medial			L.Shank.Top.Lateral			L.Shank.Top.Medial			L.Thigh.Bottom.Lateral			L.Thigh.Bottom.Medial			L.Thigh.Top.Lateral			L.Thigh.Top.Medial			R.ASIS			R.ASY			R.Heel.Bottom			R.Heel.Lateral			R.Heel.Top			R.Iliac.Crest			R.MT1			R.MT5			R.PSIS			R.Shank.Bottom.Lateral			R.Shank.Bottom.Medial			R.Shank.Top.Lateral			R.Shank.Top.Medial			R.Thigh.Bottom.Lateral			R.Thigh.Bottom.Medial			R.Thigh.Top.Lateral			R.Thigh.Top.Medial			
		X1	Y1	Z1	X2	Y2	Z2	X3	Y3	Z3	X4	Y4	Z4	X5	Y5	Z5	X6	Y6	Z6	X7	Y7	Z7	X8	Y8	Z8	X9	Y9	Z9	X10	Y10	Z10	X11	Y11	Z11	X12	Y12	Z12	X13	Y13	Z13	X14	Y14	Z14	X15	Y15	Z15	X16	Y16	Z16	X17	Y17	Z17	X18	Y18	Z18	X19	Y19	Z19	X20	Y20	Z20	X21	Y21	Z21	X22	Y22	Z22	X23	Y23	Z23	X24	Y24	Z24	X25	Y25	Z25	X26	Y26	Z26	X27	Y27	Z27	X28	Y28	Z28	X29	Y29	Z29	X30	Y30	Z30	X31	Y31	Z31	X32	Y32	Z32	X33	Y33	Z33	

2813	18.74666666666667	2277.808047724365	890.900996871636	969.8951735988491	1792.56514147211	483.291579518909	1074.619177874874	1799.964253723304	464.3622004634326	1023.208416758006	1837.232378339088	468.1196934386059	1065.349994811564	2239.800169868897	949.2205354649376	923.2656947684679	1774.82165238041	277.1017297505136	1054.005851723489	1760.146804384271	335.7846944417707	965.0393406681198	2101.229838639476	922.6446093056005	995.5960942600813	1910.912292461819	425.1951757844532	985.2388160048162	1913.214664152447	453.2680464675279	1027.783441919556	1987.730367934344	441.0605680938805	966.3768754466635	1994.515763409162	467.6832724532393	1011.52512898065	2208.3243250824	517.0678196455145	915.3553227150137	2150.841686346867	515.5409767453616	960.9092512480598	2194.29646151115	624.5908840516441	901.5908307211953	2140.052044474035	623.4064532367501	945.9614729789439	2232.561638209907	921.7460508343955	1199.91767125815	2290.157129036284	74.11971936645217	1108.246286189293	2113.150558473573	31.2965108719758	1105.587932785692	2141.489687274562	45.68475637698599	1145.560102065735	2125.552463347532	75.37226103982864	1104.557869588884	2173.936828814677	968.2218203682613	1212.030478400991	2312.843916643437	46.40651669019541	1067.042162940382	2284.739834403102	31.73865356077452	1173.452600293318	2084.223634352067	935.7583987594666	1093.815461274326	2210.678184530052	144.6976536737374	1168.471056266477	2170.352690316243	163.1213418111612	1134.385111413422	2222.41396232944	221.2603003663469	1193.291009456696	2184.215808402091	238.5079716066279	1157.933292620383	2266.398479612908	543.4983305388167	1235.992910070732	2216.799065031693	525.4789073190116	1187.348567772697	2217.815222675606	642.3066995182863	1249.292439328712	2168.055234416434	622.6002281129187	1206.813900075049	
2814	18.75333333333333	2275.693914186531	887.4860057146943	969.1042868585828	1803.441100300313	483.5030909013597	1070.411294607027	1811.989286099882	463.3127880331925	1019.82994179301	1848.353819439633	468.3098461460901	1062.727225478222	2235.649408403294	944.8953840347381	921.6518761678985	1787.27496243347	276.920596514207	1054.545770911878	1774.105416624752	333.2557115086517	963.9669727819035	2099.188891654464	919.0831434081358	994.5178120965858	1923.817011311659	424.3141058399713	984.2375333941262	1926.030323463548	452.6103664394013	1026.607220715558	2000.929513355767	439.2991466079641	965.9113824044779	2007.632862672363	466.0846447859151	1011.009572101229	2217.345962268486	514.1779828373241	915.7828382416005	2159.170226566869	510.9016587821185	960.2870073488481	2200.174751910248	621.1993868385249	901.6527522403154	2145.283381980192	618.3680530650134	945.0990720143633	2230.670755285525	920.0790460136291	1199.994127531749	2273.782009867313	74.24370936696926	1108.639766927672	2096.86557382497	31.82948535001243	1105.829337953549	2125.211018016821	46.21868409148597	1145.758013636273	2109.288684662362	75.85165997349381	1104.814462589831	2170.415336817339	965.0357860743447	1211.635251569507	2296.284511656171	47.13024945622846	1067.642622857585	2268.133032798548	32.07704832808999	1173.787481347515	2082.335297339632	933.2429376676445	1092.065439472027	2196.745207906999	144.8179079318965	1169.009567435796	2156.843124504954	164.519897692421	1135.070432289577	2210.754576524057	221.0062565325925	1194.159094350423	2173.015179132892	239.4209234267211	1158.927988570944	2261.049358401754	540.9886964461595	1237.482189224794	2211.948701664423	523.4746323750821	1188.091079417878	2213.409455115609	640.2511378566211	1250.034209008627	2164.029461117057	621.1075393245608	1206.823695769375	
2815	18.76	2273.574605266948	884.9581119744769	968.1637396119489	1813.99329568522	482.5654646869865	1065.89162299428	1823.7300847437	461.0709678677858	1016.193070340631	1859.195522637056	467.6011518878359	1059.731689307495	2231.153963411846	941.7382752004955	920.1179210045508	1800.380665626247	275.578890633238	1055.268702291147	1788.343756059519	329.2755313733968	963.0406373488134	2097.227664328273	916.5455111439844	993.985390101296	1936.639308025641	422.8716673142279	983.0602726842709	1938.614989764286	451.4194514738252	1025.252414638783	2014.024838721692	437.3848798849758	965.375569378779	2020.463888283574	464.4067488266242	1010.404626418628	2226.490918603596	512.3049555529037	916.2374518097705	2167.68210757516	507.2111923550461	959.6557399961894	2206.176246654075	618.7280791037299	901.7277859663707	2150.658771366962	614.1855048452741	944.1978738605901	2229.147505606685	918.7129947663727	1199.811473455083	2257.342239114492	74.37689496164523	1109.052786667746	2080.525408776053	32.26467739231899	1106.055060305949	2108.875028079449	46.63599579293512	1145.950020332858	2092.983695971307	76.23822514232307	1105.06047603892	2167.271696957374	962.7826942984212	1211.240238465112	2279.663484368895	47.70121791616253	1068.268932664554	2251.494362701563	32.34235222072143	1174.08099409368	2080.687249480146	931.5373293637015	1090.902766672089	2182.489933518268	144.759318679013	1169.431606729267	2142.940332674024	165.5651418568623	1135.684114448652	2198.481307437368	220.556713994099	1194.856117711877	2161.161619802411	239.9696718838262	1159.795034377451	2254.708992020353	538.6094743364054	1238.514970858303	2205.885982947937	521.7933194330204	1188.581823223373	2208.522457627381	638.5056737608371	1250.440027112685	2159.326301567394	620.1414014720584	1206.659816603626	
2816	18.76666666666667	2271.484837957896	883.3216549846628	967.1101119961547	1824.158771769234	480.4010970803592	1061.203707082569	1835.124670321733	457.6329184388651	1012.400554866482	1869.695598002434	465.9393076264394	1056.440656059081	2226.557102300589	939.7645552854236	918.7452919127983	1814.08641257105	273.0587914828666	1056.125938332556	1802.806437948788	323.9260922066458	962.2689569213632	2095.350843952439	914.9833767893906	994.0046723929503	1949.275079081926	420.8584285384393	981.733740894885	1950.86405012231	449.6895052470603	1023.742507703646	2026.909408132265	435.3362676170843	964.775755919332	2032.901241973776	462.6717116114227	1009.706576758019	2235.6766611918	511.4642177615985	916.708698571239	2176.3176128627	504.4898837009113	959.0341244629187	2212.224747378512	617.1973320555235	901.8154220912264	2156.131144569232	610.881188327258	943.2837479414104	2227.994229112888	917.5845826668026	1199.414718389052	2240.859405821126	74.46580059197831	1109.430547792358	2064.093910085631	32.66225611518276	1106.235724967404	2092.456938276744	46.98655010200689	1146.107425092114	2076.62885376765	76.58985466226531	1105.259482498279	2164.649045545901	961.3982028400724	1210.90493379811	2262.978044361617	48.04459022822763	1068.861453550151	2234.804205647162	32.50759230361954	1174.309751469589	2079.260135138659	930.593883256924	1090.382623783312	2167.931179566966	144.5642343282769	1169.686021900336	2128.663271906722	166.3140569155638	1136.16508601907	2185.628383582425	219.9703480916729	1195.329007161958	2148.686889222966	240.2287622339429	1160.464668281369	2247.520584461788	536.4229127765435	1239.108215457462	2198.751205889126	520.4549669062948	1188.855125529734	2203.221035741041	637.096922326145	1250.534249923346	2154.009008907916	619.681063107214	1206.371770838377	
2817	18.77333333333333	2269.457529351471	882.5482935874928	965.9897295103822	1833.891233726085	476.9334330330456	1056.492892329329	1846.136856294013	452.9963353221316	1008.557541229463	1879.806091208587	463.268640718914	1052.944501903345	2222.117062656504	938.9273250652416	917.605210260051	1828.366021121553	269.3572880583754	1057.060345922312	1817.48154910428	317.3022054922074	961.6465009062255	2093.565236797856	914.3255386033092	994.5329514054747	1961.640225856115	418.260499708055	980.2922147654403	1962.689545378453	447.4111723046345	1022.103160767146	2039.482784365351	433.1605513192987	964.1155306189173	2044.844168559716	460.8902458461221	1008.90595219832	2244.812255182382	511.6598763318759	917.1836209924871	2185.003662936202	502.7524507387392	958.4366868176685	2218.238242606699	616.6168312524475	901.9166614736631	2161.64516074323	608.4730096036345	942.3832654488391	2227.190686310046	916.653656299596	1198.86341470672	2224.351240083984	74.49749290304526	1109.7315697566	2047.552685509575	33.09322945719583	1106.352737169684	2075.945832143627	47.33340908922359	1146.213206518355	2060.221528331504	76.97451307345462	1105.391604776784	2162.655661879222	960.777254062808	1210.681616814466	2246.226086784318	48.14752336219907	1069.367610698679	2218.046954969463	32.57910216536815	1174.455394217852	2078.031715041209	930.3570481716409	1090.504008693403	2153.093020835492	144.3171538909846	1169.74432710493	2114.04484040043	166.8688546752296	1136.469414474788	2172.24969884228	219.3463311013133	1195.54515409521	2135.646214144167	240.3161941424589	1160.884329880814	2239.65558124649	534.5037847525606	1239.300568829148	2190.726231538196	519.4947135124638	1188.951070783111	2197.586833442354	636.0587879134939	1250.358036664308	2148.166252960762	619.7129415207677	1206.013946255913	
